<svg xmlns="http://www.w3.org/2000/svg" viewBox="0 0 100 100">
  <defs>
    <linearGradient id="goldGradient" x1="0%" y1="0%" x2="100%" y2="100%">
      <stop offset="0%" style="stop-color:#F5D77A;stop-opacity:1" />
      <stop offset="50%" style="stop-color:#D4AF37;stop-opacity:1" />
      <stop offset="100%" style="stop-color:#B8941F;stop-opacity:1" />
    </linearGradient>
  </defs>
  <!-- Background Circle -->
  <circle cx="50" cy="50" r="48" fill="#1a1a2e"/>
  <circle cx="50" cy="50" r="46" fill="none" stroke="url(#goldGradient)" stroke-width="2"/>
  <!-- Brain Icon - simplified -->
  <g fill="url(#goldGradient)">
    <!-- Left hemisphere -->
    <path d="M35 35c-8 0-12 8-12 15s4 15 12 15c2 0 4-1 5-2v-26c-1-1-3-2-5-2z"/>
    <!-- Right hemisphere -->
    <path d="M65 35c8 0 12 8 12 15s-4 15-12 15c-2 0-4-1-5-2v-26c1-1 3-2 5-2z"/>
    <!-- Center connection -->
    <rect x="45" y="40" width="10" height="20" rx="2"/>
    <!-- Neural nodes -->
    <circle cx="50" cy="30" r="4"/>
    <circle cx="50" cy="70" r="4"/>
    <circle cx="30" cy="50" r="3"/>
    <circle cx="70" cy="50" r="3"/>
  </g>
  <!-- B letter overlay -->
  <text x="50" y="58" font-family="Arial, sans-serif" font-size="28" font-weight="bold" fill="#1a1a2e" text-anchor="middle">β</text>
</svg>
